<mxfile host="app.diagrams.net" agent="Mozilla/5.0 (Windows NT 10.0; Win64; x64) AppleWebKit/537.36 (KHTML, like Gecko) Chrome/132.0.0.0 Safari/537.36" version="26.0.11">
  <diagram name="페이지-1" id="UxbmlU4kr9kUvNsSBIVm">
    <mxGraphModel dx="1434" dy="772" grid="1" gridSize="10" guides="1" tooltips="1" connect="1" arrows="1" fold="1" page="1" pageScale="1" pageWidth="827" pageHeight="1169" math="0" shadow="0">
      <root>
        <mxCell id="0" />
        <mxCell id="1" parent="0" />
        <mxCell id="cY8hQOZu7R0ql0KVa2N_-6" value="HTTP 요청" style="edgeStyle=orthogonalEdgeStyle;rounded=0;orthogonalLoop=1;jettySize=auto;html=1;" edge="1" parent="1" source="cY8hQOZu7R0ql0KVa2N_-1" target="cY8hQOZu7R0ql0KVa2N_-5">
          <mxGeometry relative="1" as="geometry" />
        </mxCell>
        <mxCell id="cY8hQOZu7R0ql0KVa2N_-1" value="" style="rounded=1;whiteSpace=wrap;html=1;" vertex="1" parent="1">
          <mxGeometry x="70" y="110" width="270" height="140" as="geometry" />
        </mxCell>
        <mxCell id="cY8hQOZu7R0ql0KVa2N_-2" value="&lt;font&gt;웹 브라우저&lt;/font&gt;" style="verticalAlign=top;verticalLabelPosition=bottom;labelPosition=center;align=center;html=1;outlineConnect=0;gradientDirection=north;strokeWidth=1;shape=mxgraph.networks.pc;fillColor=#d5e8d4;strokeColor=#82b366;" vertex="1" parent="1">
          <mxGeometry x="100" y="140" width="100" height="70" as="geometry" />
        </mxCell>
        <mxCell id="cY8hQOZu7R0ql0KVa2N_-3" value="모바일 앱" style="outlineConnect=0;dashed=0;verticalLabelPosition=bottom;verticalAlign=top;align=center;html=1;shape=mxgraph.aws3.mobile_client;fillColor=#f8cecc;strokeColor=#b85450;" vertex="1" parent="1">
          <mxGeometry x="250" y="147" width="40.5" height="63" as="geometry" />
        </mxCell>
        <mxCell id="cY8hQOZu7R0ql0KVa2N_-4" value="사용자" style="text;html=1;align=center;verticalAlign=middle;resizable=0;points=[];autosize=1;strokeColor=none;fillColor=none;" vertex="1" parent="1">
          <mxGeometry x="175" y="80" width="60" height="30" as="geometry" />
        </mxCell>
        <mxCell id="cY8hQOZu7R0ql0KVa2N_-5" value="" style="whiteSpace=wrap;html=1;rounded=1;dashed=1;" vertex="1" parent="1">
          <mxGeometry x="570" y="110" width="280" height="140" as="geometry" />
        </mxCell>
        <mxCell id="cY8hQOZu7R0ql0KVa2N_-7" value="API 서버" style="image;aspect=fixed;perimeter=ellipsePerimeter;html=1;align=center;shadow=0;dashed=0;spacingTop=3;image=img/lib/active_directory/server_farm.svg;" vertex="1" parent="1">
          <mxGeometry x="590" y="120" width="100" height="100" as="geometry" />
        </mxCell>
        <mxCell id="cY8hQOZu7R0ql0KVa2N_-8" value="처리율&lt;div&gt;제한 장치&lt;/div&gt;" style="rounded=1;whiteSpace=wrap;html=1;" vertex="1" parent="1">
          <mxGeometry x="710" y="150" width="120" height="60" as="geometry" />
        </mxCell>
      </root>
    </mxGraphModel>
  </diagram>
</mxfile>
